Coordinates
version=1
nRows=65
nColumns=12
inDegrees=yes

Units are S.I. units (second, meters, Newtons, ...)
Angles are in degrees

endheader
time	SC_y	SC_z	SC_x	AC_y	AC_z	AC_x	GH_y	GH_z	GH_yy	EL_x	PS_y
       0.0              -56.41          25.78          59.91          43.65         -4.258          13.64         -146.4          45.51         -103.6          132.1          149.7
   0.03538              -56.41          25.77           59.9          43.66         -4.257          13.64         -146.4          45.51         -103.5          132.1          149.7
   0.07076              -56.41          25.77           59.9          43.66         -4.256          13.64         -146.4          45.52         -103.5          132.1          149.7
    0.1061               -56.4          25.77          59.89          43.66         -4.255          13.63         -146.4          45.53         -103.5          132.1          149.7
    0.1415               -56.4          25.77          59.89          43.66         -4.254          13.63         -146.4          45.54         -103.5          132.0          149.7
    0.1769               -56.4          25.76          59.88          43.66         -4.252          13.62         -146.4          45.54         -103.5          132.0          149.7
    0.2123               -56.4          25.76          59.87          43.67         -4.251          13.62         -146.4          45.55         -103.5          132.0          149.7
    0.2477               -56.4          25.76          59.86          43.67         -4.249          13.61         -146.3          45.56         -103.4          132.0          149.7
     0.283               -56.4          25.75          59.85          43.67         -4.248          13.61         -146.3          45.57         -103.4          131.9          149.7
    0.3184               -56.4          25.75          59.84          43.68         -4.246           13.6         -146.3          45.58         -103.4          131.9          149.7
    0.3538              -56.39          25.74          59.83          43.68         -4.244          13.59         -146.3           45.6         -103.4          131.9          149.7
    0.3892              -56.39          25.74          59.82          43.68         -4.242          13.59         -146.3          45.61         -103.3          131.8          149.7
    0.4246              -56.39          25.74          59.81          43.69          -4.24          13.58         -146.3          45.62         -103.3          131.8          149.7
    0.4599              -56.39          25.73           59.8          43.69         -4.237          13.57         -146.3          45.64         -103.3          131.8          149.7
    0.4953              -56.38          25.73          59.78          43.69         -4.235          13.56         -146.3          45.65         -103.2          131.7          149.7
    0.5307              -56.38          25.72          59.77           43.7         -4.232          13.55         -146.2          45.67         -103.2          131.7          149.7
    0.5661              -56.38          25.71          59.75          43.71         -4.229          13.54         -146.2          45.69         -103.2          131.6          149.7
    0.6015              -56.38          25.71          59.73          43.71         -4.226          13.53         -146.2          45.71         -103.1          131.6          149.7
    0.6368              -56.37           25.7          59.71          43.72         -4.222          13.51         -146.2          45.73         -103.1          131.5          149.7
    0.6722              -56.37          25.69          59.69          43.72         -4.218           13.5         -146.2          45.75         -103.0          131.4          149.7
    0.7076              -56.36          25.68          59.67          43.73         -4.214          13.48         -146.1          45.78         -103.0          131.4          149.7
     0.743              -56.36          25.67          59.64          43.74         -4.209          13.47         -146.1          45.81         -102.9          131.3          149.7
    0.7783              -56.35          25.66          59.61          43.75         -4.203          13.45         -146.1          45.84         -102.8          131.2          149.7
    0.8137              -56.35          25.65          59.58          43.76         -4.198          13.43         -146.1          45.88         -102.8          131.1          149.7
    0.8491              -56.34          25.63          59.54          43.77         -4.191           13.4         -146.0          45.92         -102.7          131.0          149.6
    0.8845              -56.33          25.62           59.5          43.78         -4.184          13.38         -146.0          45.96         -102.6          130.9          149.6
    0.9199              -56.33           25.6          59.46           43.8         -4.176          13.35         -145.9          46.01         -102.5          130.7          149.6
    0.9552              -56.32          25.58          59.41          43.81         -4.166          13.31         -145.9          46.07         -102.3          130.6          149.6
    0.9906              -56.31          25.56          59.35          43.83         -4.156          13.28         -145.8          46.13         -102.2          130.4          149.6
     1.026               -56.3          25.53          59.29          43.85         -4.144          13.23         -145.7          46.21         -102.1          130.2          149.6
     1.061              -56.28          25.51          59.21          43.87         -4.131          13.19         -145.7          46.29         -101.9          130.0          149.6
     1.097              -56.27          25.47          59.13           43.9         -4.115          13.13         -145.6          46.38         -101.7          129.7          149.5
     1.132              -56.25          25.44          59.03          43.93         -4.098          13.07         -145.5          46.49         -101.4          129.4          149.5
     1.168              -56.23          25.39          58.92          43.97         -4.077          12.99         -145.4          46.62         -101.2          129.1          149.5
     1.203              -56.21          25.34          58.78          44.01         -4.053          12.91         -145.2          46.77         -100.8          128.7          149.4
     1.238              -56.18          25.28          58.63          44.06         -4.024           12.8         -145.1          46.94         -100.5          128.2          149.4
     1.274              -56.14          25.21          58.44          44.12          -3.99          12.68         -144.9          47.15         -100.0          127.6          149.3
     1.309               -56.1          25.12          58.22          44.19          -3.95          12.53         -144.6           47.4         -99.48          127.0          149.3
     1.344              -56.06          25.02          57.95          44.27           -3.9          12.36         -144.4           47.7         -98.83          126.1          149.2
      1.38               -56.0          24.89          57.62          44.38          -3.84          12.14         -144.0          48.07         -98.04          125.1          149.1
     1.415              -55.92          24.73          57.22          44.51         -3.766          11.87         -143.6          48.53         -97.06          123.9          149.0
     1.451              -55.83          24.54          56.71          44.67         -3.674          11.54         -143.1           49.1         -95.84          122.3          148.9
     1.486              -55.72          24.29          56.07          44.87         -3.557          11.12         -142.4          49.81          -94.3          120.4          148.7
     1.521              -55.57          23.98          55.26          45.13         -3.409          10.59         -141.6          50.72         -92.34          117.9          148.5
     1.557              -55.39          23.58          54.22          45.46         -3.219          9.909         -140.5          51.89         -89.84          114.8          148.2
     1.592              -55.15          23.06          52.89          45.88         -2.976          9.034         -139.1          53.38         -86.63          110.7          147.8
     1.627              -54.85          22.41          51.19          46.42         -2.665          7.917         -137.3          55.29         -82.53          105.5          147.3
     1.663              -54.46          21.58          49.05          47.09         -2.274          6.512         -135.1          57.69         -77.37          98.95          146.7
     1.698               -54.0          20.57          46.44          47.92         -1.798          4.799         -132.4          60.61         -71.09          90.99          146.0
     1.734              -53.45           19.4          43.42          48.88         -1.246          2.815         -129.3           64.0          -63.8          81.76          145.2
     1.769              -52.87          18.14          40.14          49.91        -0.6483         0.6658         -125.9          67.67         -55.91          71.77          144.3
     1.804              -52.28          16.87          36.87          50.95       -0.05061         -1.483         -122.5          71.34         -48.02          61.77          143.4
      1.84              -51.74          15.71          33.85          51.91         0.5014         -3.468         -119.3          74.73         -40.74          52.54          142.5
     1.875              -51.28           14.7          31.24          52.73         0.9777          -5.18         -116.6          77.65         -34.45          44.58          141.8
      1.91              -50.89          13.87           29.1          53.41          1.368         -6.585         -114.4          80.05         -29.29          38.05          141.2
     1.946              -50.59          13.22           27.4          53.95          1.679         -7.702         -112.6          81.96         -25.19          32.85          140.7
     1.981              -50.35           12.7          26.07          54.37          1.923         -8.577         -111.2          83.45         -21.98          28.78          140.4
     2.017              -50.16           12.3          25.03           54.7          2.112         -9.259         -110.1          84.61         -19.48          25.61          140.1
     2.052              -50.02          11.99          24.22          54.96           2.26         -9.792         -109.3          85.52         -17.52          23.14          139.9
     2.087               -49.9          11.74          23.58          55.16          2.377         -10.21         -108.6          86.24         -15.99          21.19          139.7
     2.123              -49.81          11.54          23.07          55.32          2.469         -10.54         -108.1          86.81         -14.76          19.64          139.6
     2.158              -49.74          11.39          22.67          55.45          2.544         -10.81         -107.7          87.26         -13.79           18.4          139.4
     2.194              -49.68          11.26          22.34          55.55          2.604         -11.03         -107.3          87.63         -12.99           17.4          139.3
     2.229              -49.63          11.16          22.07          55.64          2.653          -11.2         -107.1          87.93         -12.34          16.57          139.3
     2.264              -49.59          11.07          21.85          55.71          2.694         -11.35         -106.8          88.18         -11.81          15.89          139.2
